ffmpeg started on 2025-06-07 at 17:23:33
Report written to "D:\Convert\FFMetrics\reports\psnr_report-6.txt"
Log level: 32
Command line:
ffmpeg -hide_banner -nostdin -i "G:\\\xc0\xed\xe8\xec\xe5\\\xce\xed\xe3\xee\xe8\xed\xe3\xe8\\!_36_\xce\xf1\xe5\xed\xfc_2024\\DreamCast\\\xdd\xe9, \xd2\xee\xec\xe1\xee!\\\xd2\xc2-1\\[DC] Ooi! Tonbo - 10_Telegram_HEVC.mkv" -i "G:\\\xc0\xed\xe8\xec\xe5\\\xce\xed\xe3\xee\xe8\xed\xe3\xe8\\!_36_\xce\xf1\xe5\xed\xfc_2024\\DreamCast\\\xdd\xe9, \xd2\xee\xec\xe1\xee!\\\xd2\xc2-1\\[DC] Ooi! Tonbo - 10_Telegram.mp4" -lavfi "[0:v]settb=AVTB,setpts=PTS-STARTPTS,format=pix_fmts=yuv420p10,fps=24000/1001,scale=1920:1080:flags=bicubic[main];[1:v]settb=AVTB,setpts=PTS-STARTPTS,format=pix_fmts=yuv420p,fps=24000/1001,scale=1920:1080:flags=bicubic[ref];[main][ref]psnr=eof_action=endall:stats_file='D\\:/Convert/FFMetrics/logs/psnr_logfile-6.txt'" -f null -
Input #0, matroska,webm, from 'G:\Аниме\Онгоинги\!_36_Осень_2024\DreamCast\Эй, Томбо!\ТВ-1\[DC] Ooi! Tonbo - 10_Telegram_HEVC.mkv':
  Metadata:
    COMPATIBLE_BRANDS: isomiso2avc1mp41
    MAJOR_BRAND     : isom
    MINOR_VERSION   : 512
    ENCODER         : Lavf61.7.100
  Duration: 00:24:21.85, start: -0.021000, bitrate: 1321 kb/s
  Stream #0:0: Video: hevc (Main 10), yuv420p10le(tv, bt709, progressive), 1920x1080 [SAR 1:1 DAR 16:9], 23.98 fps, 23.98 tbr, 1k tbn (default)
      Metadata:
        HANDLER_NAME    : VideoHandler
        VENDOR_ID       : [0][0][0][0]
        ENCODER         : Lavc61.19.100 libx265
        BPS             : 1125924
        DURATION        : 00:24:19.582708333
        NUMBER_OF_FRAMES: 34995
        NUMBER_OF_BYTES : 205422388
        _STATISTICS_WRITING_APP: mkvpropedit v66.0.0 ('Josie') 64-bit
        _STATISTICS_WRITING_DATE_UTC: 2025-06-05 15:08:17
        _STATISTICS_TAGS: BPS DURATION NUMBER_OF_FRAMES NUMBER_OF_BYTES
  Stream #0:1: Audio: aac (LC), 48000 Hz, stereo, fltp (default)
      Metadata:
        HANDLER_NAME    : SoundHandler
        VENDOR_ID       : [0][0][0][0]
        ENCODER         : Lavc61.19.100 aac
        BPS             : 192762
        DURATION        : 00:24:21.845000000
        NUMBER_OF_FRAMES: 68525
        NUMBER_OF_BYTES : 35223657
        _STATISTICS_WRITING_APP: mkvpropedit v66.0.0 ('Josie') 64-bit
        _STATISTICS_WRITING_DATE_UTC: 2025-06-05 15:08:17
        _STATISTICS_TAGS: BPS DURATION NUMBER_OF_FRAMES NUMBER_OF_BYTES
Input #1, mov,mp4,m4a,3gp,3g2,mj2, from 'G:\Аниме\Онгоинги\!_36_Осень_2024\DreamCast\Эй, Томбо!\ТВ-1\[DC] Ooi! Tonbo - 10_Telegram.mp4':
  Metadata:
    major_brand     : isom
    minor_version   : 512
    compatible_brands: isomiso2avc1mp41
    encoder         : Lavf60.16.100
  Duration: 00:24:21.82, start: 0.000000, bitrate: 3805 kb/s
  Stream #1:0[0x1](und): Video: h264 (High) (avc1 / 0x31637661), yuv420p(tv, bt709, progressive), 1920x1080 [SAR 1:1 DAR 16:9], 3663 kb/s, 23.98 fps, 23.98 tbr, 24k tbn (default)
      Metadata:
        handler_name    : VideoHandler
        vendor_id       : [0][0][0][0]
        encoder         : Lavc60.31.102 h264_qsv
  Stream #1:1[0x2](und): Audio: aac (HE-AACv2) (mp4a / 0x6134706D), 48000 Hz, stereo, fltp, 144 kb/s (default)
      Metadata:
        handler_name    : SoundHandler
        vendor_id       : [0][0][0][0]
Stream mapping:
  Stream #0:0 (hevc) -> settb:default
  Stream #1:0 (h264) -> settb:default
  psnr:default -> Stream #0:0 (wrapped_avframe)
  Stream #0:1 -> #0:1 (aac (native) -> pcm_s16le (native))
Output #0, null, to 'pipe:':
  Metadata:
    COMPATIBLE_BRANDS: isomiso2avc1mp41
    MAJOR_BRAND     : isom
    MINOR_VERSION   : 512
    encoder         : Lavf61.7.100
  Stream #0:0: Video: wrapped_avframe, yuv420p10le(tv, bt709, progressive), 1920x1080 [SAR 1:1 DAR 16:9], q=2-31, 200 kb/s, 23.98 fps, 23.98 tbn
      Metadata:
        encoder         : Lavc61.19.100 wrapped_avframe
  Stream #0:1: Audio: pcm_s16le, 48000 Hz, stereo, s16, 1536 kb/s (default)
      Metadata:
        HANDLER_NAME    : SoundHandler
        VENDOR_ID       : [0][0][0][0]
        _STATISTICS_TAGS: BPS DURATION NUMBER_OF_FRAMES NUMBER_OF_BYTES
        BPS             : 192762
        DURATION        : 00:24:21.845000000
        NUMBER_OF_FRAMES: 68525
        NUMBER_OF_BYTES : 35223657
        _STATISTICS_WRITING_APP: mkvpropedit v66.0.0 ('Josie') 64-bit
        _STATISTICS_WRITING_DATE_UTC: 2025-06-05 15:08:17
        encoder         : Lavc61.19.100 pcm_s16le
frame=  175 fps=0.0 q=-0.0 size=N/A time=00:00:07.29 bitrate=N/A speed=13.9x    frame=  450 fps=433 q=-0.0 size=N/A time=00:00:18.76 bitrate=N/A speed=18.1x    frame=  722 fps=466 q=-0.0 size=N/A time=00:00:30.11 bitrate=N/A speed=19.4x    frame=  959 fps=462 q=-0.0 size=N/A time=00:00:39.99 bitrate=N/A speed=19.3x    frame= 1118 fps=433 q=-0.0 size=N/A time=00:00:46.62 bitrate=N/A speed=  18x    frame= 1368 fps=440 q=-0.0 size=N/A time=00:00:57.05 bitrate=N/A speed=18.4x    frame= 1563 fps=432 q=-0.0 size=N/A time=00:01:05.19 bitrate=N/A speed=  18x    frame= 1824 fps=442 q=-0.0 size=N/A time=00:01:16.07 bitrate=N/A speed=18.5x    frame= 2093 fps=450 q=-0.0 size=N/A time=00:01:27.29 bitrate=N/A speed=18.8x    frame= 2357 fps=457 q=-0.0 size=N/A time=00:01:38.30 bitrate=N/A speed=19.1x    frame= 2623 fps=463 q=-0.0 size=N/A time=00:01:49.40 bitrate=N/A speed=19.3x    frame= 2844 fps=459 q=-0.0 size=N/A time=00:01:58.61 bitrate=N/A speed=19.1x    frame= 3060 fps=456 q=-0.0 size=N/A time=00:02:07.62 bitrate=N/A speed=  19x    frame= 3262 fps=452 q=-0.0 size=N/A time=00:02:16.05 bitrate=N/A speed=18.9x    frame= 3488 fps=451 q=-0.0 size=N/A time=00:02:25.47 bitrate=N/A speed=18.8x    frame= 3714 fps=450 q=-0.0 size=N/A time=00:02:34.90 bitrate=N/A speed=18.8x    frame= 3926 fps=448 q=-0.0 size=N/A time=00:02:43.74 bitrate=N/A speed=18.7x    frame= 4143 fps=446 q=-0.0 size=N/A time=00:02:52.79 bitrate=N/A speed=18.6x    frame= 4357 fps=445 q=-0.0 size=N/A time=00:03:01.72 bitrate=N/A speed=18.5x    frame= 4560 fps=442 q=-0.0 size=N/A time=00:03:10.19 bitrate=N/A speed=18.4x    frame= 4813 fps=444 q=-0.0 size=N/A time=00:03:20.74 bitrate=N/A speed=18.5x    frame= 5019 fps=442 q=-0.0 size=N/A time=00:03:29.33 bitrate=N/A speed=18.4x    frame= 5274 fps=445 q=-0.0 size=N/A time=00:03:39.96 bitrate=N/A speed=18.5x    frame= 5537 fps=447 q=-0.0 size=N/A time=00:03:50.93 bitrate=N/A speed=18.7x    frame= 5775 fps=448 q=-0.0 size=N/A time=00:04:00.86 bitrate=N/A speed=18.7x    frame= 6058 fps=451 q=-0.0 size=N/A time=00:04:12.66 bitrate=N/A speed=18.8x    frame= 6328 fps=454 q=-0.0 size=N/A time=00:04:23.93 bitrate=N/A speed=18.9x    frame= 6581 fps=456 q=-0.0 size=N/A time=00:04:34.48 bitrate=N/A speed=  19x    frame= 6826 fps=456 q=-0.0 size=N/A time=00:04:44.70 bitrate=N/A speed=  19x    frame= 7024 fps=454 q=-0.0 size=N/A time=00:04:52.95 bitrate=N/A speed=18.9x    frame= 7280 fps=455 q=-0.0 size=N/A time=00:05:03.63 bitrate=N/A speed=  19x    frame= 7494 fps=454 q=-0.0 size=N/A time=00:05:12.56 bitrate=N/A speed=18.9x    frame= 7746 fps=455 q=-0.0 size=N/A time=00:05:23.07 bitrate=N/A speed=  19x    frame= 7997 fps=456 q=-0.0 size=N/A time=00:05:33.54 bitrate=N/A speed=  19x    frame= 8255 fps=457 q=-0.0 size=N/A time=00:05:44.30 bitrate=N/A speed=19.1x    frame= 8474 fps=456 q=-0.0 size=N/A time=00:05:53.43 bitrate=N/A speed=  19x    frame= 8716 fps=457 q=-0.0 size=N/A time=00:06:03.52 bitrate=N/A speed=  19x    frame= 8943 fps=456 q=-0.0 size=N/A time=00:06:12.99 bitrate=N/A speed=  19x    frame= 9174 fps=456 q=-0.0 size=N/A time=00:06:22.63 bitrate=N/A speed=  19x    frame= 9380 fps=455 q=-0.0 size=N/A time=00:06:31.22 bitrate=N/A speed=  19x    frame= 9642 fps=456 q=-0.0 size=N/A time=00:06:42.15 bitrate=N/A speed=  19x    frame= 9927 fps=458 q=-0.0 size=N/A time=00:06:54.03 bitrate=N/A speed=19.1x    frame=10198 fps=460 q=-0.0 size=N/A time=00:07:05.34 bitrate=N/A speed=19.2x    frame=10473 fps=461 q=-0.0 size=N/A time=00:07:16.81 bitrate=N/A speed=19.2x    frame=10699 fps=461 q=-0.0 size=N/A time=00:07:26.23 bitrate=N/A speed=19.2x    frame=10955 fps=462 q=-0.0 size=N/A time=00:07:36.91 bitrate=N/A speed=19.3x    frame=11195 fps=462 q=-0.0 size=N/A time=00:07:46.92 bitrate=N/A speed=19.3x    frame=11421 fps=461 q=-0.0 size=N/A time=00:07:56.35 bitrate=N/A speed=19.2x    frame=11637 fps=461 q=-0.0 size=N/A time=00:08:05.35 bitrate=N/A speed=19.2x    frame=11907 fps=462 q=-0.0 size=N/A time=00:08:16.62 bitrate=N/A speed=19.3x    frame=12127 fps=461 q=-0.0 size=N/A time=00:08:25.79 bitrate=N/A speed=19.2x    frame=12357 fps=461 q=-0.0 size=N/A time=00:08:35.38 bitrate=N/A speed=19.2x    frame=12572 fps=460 q=-0.0 size=N/A time=00:08:44.35 bitrate=N/A speed=19.2x    frame=12736 fps=457 q=-0.0 size=N/A time=00:08:51.19 bitrate=N/A speed=19.1x    frame=12958 fps=457 q=-0.0 size=N/A time=00:09:00.45 bitrate=N/A speed=19.1x    frame=13180 fps=456 q=-0.0 size=N/A time=00:09:09.71 bitrate=N/A speed=  19x    frame=13456 fps=458 q=-0.0 size=N/A time=00:09:21.22 bitrate=N/A speed=19.1x    frame=13739 fps=459 q=-0.0 size=N/A time=00:09:33.03 bitrate=N/A speed=19.2x    frame=13936 fps=458 q=-0.0 size=N/A time=00:09:41.24 bitrate=N/A speed=19.1x    frame=14182 fps=458 q=-0.0 size=N/A time=00:09:51.50 bitrate=N/A speed=19.1x    frame=14426 fps=458 q=-0.0 size=N/A time=00:10:01.68 bitrate=N/A speed=19.1x    frame=14648 fps=458 q=-0.0 size=N/A time=00:10:10.94 bitrate=N/A speed=19.1x    frame=14889 fps=458 q=-0.0 size=N/A time=00:10:20.99 bitrate=N/A speed=19.1x    frame=15148 fps=459 q=-0.0 size=N/A time=00:10:31.79 bitrate=N/A speed=19.1x    frame=15407 fps=460 q=-0.0 size=N/A time=00:10:42.60 bitrate=N/A speed=19.2x    frame=15657 fps=460 q=-0.0 size=N/A time=00:10:53.02 bitrate=N/A speed=19.2x    frame=15908 fps=460 q=-0.0 size=N/A time=00:11:03.49 bitrate=N/A speed=19.2x    frame=16171 fps=461 q=-0.0 size=N/A time=00:11:14.46 bitrate=N/A speed=19.2x    frame=16438 fps=462 q=-0.0 size=N/A time=00:11:25.60 bitrate=N/A speed=19.3x    frame=16660 fps=461 q=-0.0 size=N/A time=00:11:34.86 bitrate=N/A speed=19.2x    frame=16922 fps=462 q=-0.0 size=N/A time=00:11:45.78 bitrate=N/A speed=19.3x    frame=17179 fps=463 q=-0.0 size=N/A time=00:11:56.50 bitrate=N/A speed=19.3x    frame=17427 fps=463 q=-0.0 size=N/A time=00:12:06.85 bitrate=N/A speed=19.3x    frame=17693 fps=464 q=-0.0 size=N/A time=00:12:17.94 bitrate=N/A speed=19.3x    frame=17921 fps=463 q=-0.0 size=N/A time=00:12:27.45 bitrate=N/A speed=19.3x    frame=18167 fps=463 q=-0.0 size=N/A time=00:12:37.71 bitrate=N/A speed=19.3x    frame=18370 fps=463 q=-0.0 size=N/A time=00:12:46.18 bitrate=N/A speed=19.3x    frame=18651 fps=464 q=-0.0 size=N/A time=00:12:57.90 bitrate=N/A speed=19.3x    frame=18889 fps=464 q=-0.0 size=N/A time=00:13:07.82 bitrate=N/A speed=19.3x    frame=19115 fps=463 q=-0.0 size=N/A time=00:13:17.25 bitrate=N/A speed=19.3x    frame=19386 fps=464 q=-0.0 size=N/A time=00:13:28.55 bitrate=N/A speed=19.4x    frame=19558 fps=462 q=-0.0 size=N/A time=00:13:35.73 bitrate=N/A speed=19.3x    frame=19799 fps=463 q=-0.0 size=N/A time=00:13:45.78 bitrate=N/A speed=19.3x    frame=20065 fps=463 q=-0.0 size=N/A time=00:13:56.87 bitrate=N/A speed=19.3x    frame=20322 fps=464 q=-0.0 size=N/A time=00:14:07.59 bitrate=N/A speed=19.3x    frame=20590 fps=464 q=-0.0 size=N/A time=00:14:18.77 bitrate=N/A speed=19.4x    frame=20830 fps=464 q=-0.0 size=N/A time=00:14:28.78 bitrate=N/A speed=19.4x    frame=21045 fps=464 q=-0.0 size=N/A time=00:14:37.75 bitrate=N/A speed=19.3x    frame=21248 fps=463 q=-0.0 size=N/A time=00:14:46.21 bitrate=N/A speed=19.3x    frame=21485 fps=463 q=-0.0 size=N/A time=00:14:56.10 bitrate=N/A speed=19.3x    frame=21695 fps=462 q=-0.0 size=N/A time=00:15:04.86 bitrate=N/A speed=19.3x    frame=21956 fps=463 q=-0.0 size=N/A time=00:15:15.74 bitrate=N/A speed=19.3x    frame=22203 fps=463 q=-0.0 size=N/A time=00:15:26.05 bitrate=N/A speed=19.3x    frame=22429 fps=463 q=-0.0 size=N/A time=00:15:35.47 bitrate=N/A speed=19.3x    frame=22678 fps=463 q=-0.0 size=N/A time=00:15:45.86 bitrate=N/A speed=19.3x    frame=22948 fps=463 q=-0.0 size=N/A time=00:15:57.12 bitrate=N/A speed=19.3x    frame=23226 fps=464 q=-0.0 size=N/A time=00:16:08.71 bitrate=N/A speed=19.4x    frame=23497 fps=465 q=-0.0 size=N/A time=00:16:20.02 bitrate=N/A speed=19.4x    frame=23776 fps=466 q=-0.0 size=N/A time=00:16:31.65 bitrate=N/A speed=19.4x    frame=24046 fps=466 q=-0.0 size=N/A time=00:16:42.91 bitrate=N/A speed=19.5x    frame=24321 fps=467 q=-0.0 size=N/A time=00:16:54.38 bitrate=N/A speed=19.5x    frame=24586 fps=467 q=-0.0 size=N/A time=00:17:05.44 bitrate=N/A speed=19.5x    frame=24841 fps=468 q=-0.0 size=N/A time=00:17:16.07 bitrate=N/A speed=19.5x    frame=25082 fps=468 q=-0.0 size=N/A time=00:17:26.12 bitrate=N/A speed=19.5x    frame=25366 fps=468 q=-0.0 size=N/A time=00:17:37.97 bitrate=N/A speed=19.5x    frame=25602 fps=468 q=-0.0 size=N/A time=00:17:47.81 bitrate=N/A speed=19.5x    frame=25845 fps=468 q=-0.0 size=N/A time=00:17:57.95 bitrate=N/A speed=19.5x    frame=26076 fps=468 q=-0.0 size=N/A time=00:18:07.58 bitrate=N/A speed=19.5x    frame=26287 fps=468 q=-0.0 size=N/A time=00:18:16.38 bitrate=N/A speed=19.5x    frame=26544 fps=468 q=-0.0 size=N/A time=00:18:27.10 bitrate=N/A speed=19.5x    frame=26782 fps=468 q=-0.0 size=N/A time=00:18:37.03 bitrate=N/A speed=19.5x    frame=27027 fps=468 q=-0.0 size=N/A time=00:18:47.25 bitrate=N/A speed=19.5x    frame=27282 fps=468 q=-0.0 size=N/A time=00:18:57.88 bitrate=N/A speed=19.5x    frame=27562 fps=469 q=-0.0 size=N/A time=00:19:09.56 bitrate=N/A speed=19.6x    frame=27774 fps=468 q=-0.0 size=N/A time=00:19:18.40 bitrate=N/A speed=19.5x    frame=27978 fps=468 q=-0.0 size=N/A time=00:19:26.91 bitrate=N/A speed=19.5x    frame=28205 fps=467 q=-0.0 size=N/A time=00:19:36.38 bitrate=N/A speed=19.5x    frame=28477 fps=468 q=-0.0 size=N/A time=00:19:47.72 bitrate=N/A speed=19.5x    frame=28732 fps=468 q=-0.0 size=N/A time=00:19:58.36 bitrate=N/A speed=19.5x    frame=29004 fps=469 q=-0.0 size=N/A time=00:20:09.70 bitrate=N/A speed=19.5x    frame=29217 fps=468 q=-0.0 size=N/A time=00:20:18.59 bitrate=N/A speed=19.5x    frame=29463 fps=468 q=-0.0 size=N/A time=00:20:28.85 bitrate=N/A speed=19.5x    frame=29709 fps=468 q=-0.0 size=N/A time=00:20:39.11 bitrate=N/A speed=19.5x    frame=29990 fps=469 q=-0.0 size=N/A time=00:20:50.83 bitrate=N/A speed=19.6x    frame=30252 fps=469 q=-0.0 size=N/A time=00:21:01.76 bitrate=N/A speed=19.6x    frame=30477 fps=469 q=-0.0 size=N/A time=00:21:11.14 bitrate=N/A speed=19.6x    frame=30737 fps=469 q=-0.0 size=N/A time=00:21:21.98 bitrate=N/A speed=19.6x    frame=31005 fps=470 q=-0.0 size=N/A time=00:21:33.16 bitrate=N/A speed=19.6x    frame=31235 fps=469 q=-0.0 size=N/A time=00:21:42.75 bitrate=N/A speed=19.6x    frame=31456 fps=469 q=-0.0 size=N/A time=00:21:51.97 bitrate=N/A speed=19.6x    frame=31698 fps=469 q=-0.0 size=N/A time=00:22:02.07 bitrate=N/A speed=19.6x    frame=31977 fps=470 q=-0.0 size=N/A time=00:22:13.70 bitrate=N/A speed=19.6x    frame=32224 fps=470 q=-0.0 size=N/A time=00:22:24.00 bitrate=N/A speed=19.6x    frame=32458 fps=469 q=-0.0 size=N/A time=00:22:33.76 bitrate=N/A speed=19.6x    frame=32693 fps=469 q=-0.0 size=N/A time=00:22:43.57 bitrate=N/A speed=19.6x    frame=32907 fps=469 q=-0.0 size=N/A time=00:22:52.49 bitrate=N/A speed=19.6x    frame=33133 fps=469 q=-0.0 size=N/A time=00:23:01.92 bitrate=N/A speed=19.6x    frame=33344 fps=468 q=-0.0 size=N/A time=00:23:10.72 bitrate=N/A speed=19.5x    frame=33571 fps=468 q=-0.0 size=N/A time=00:23:20.19 bitrate=N/A speed=19.5x    frame=33788 fps=468 q=-0.0 size=N/A time=00:23:29.24 bitrate=N/A speed=19.5x    frame=34014 fps=468 q=-0.0 size=N/A time=00:23:38.66 bitrate=N/A speed=19.5x    frame=34238 fps=467 q=-0.0 size=N/A time=00:23:48.00 bitrate=N/A speed=19.5x    frame=34441 fps=467 q=-0.0 size=N/A time=00:23:56.47 bitrate=N/A speed=19.5x    frame=34659 fps=467 q=-0.0 size=N/A time=00:24:05.56 bitrate=N/A speed=19.5x    frame=34887 fps=466 q=-0.0 size=N/A time=00:24:15.07 bitrate=N/A speed=19.5x    [Parsed_psnr_10 @ 0000021d89d27c40] PSNR y:47.831297 u:49.604683 v:49.997783 average:48.393070 min:40.867163 max:inf
[out#0/null @ 0000021d87ad4200] video:15037KiB audio:274100KiB subtitle:0KiB other streams:0KiB global headers:0KiB muxing overhead: unknown
frame=34995 fps=467 q=-0.0 Lsize=N/A time=00:24:19.58 bitrate=N/A speed=19.5x    
